<?xml version="1.0" encoding="utf-8"?>
<!-- Generator: Fusion 360, Shaper Origin Export Add-In, Version 1.5.0  -->
<svg enable-background="new 0 0 11.96 5.3826416" height="5.3826416cm" shaper:fusionaddin="version:1.5.0" version="1.1" viewBox="0 0 11.96 5.3826416" width="11.96cm" x="0cm" xml:space="preserve" xmlns="http://www.w3.org/2000/svg" xmlns:shaper="http://www.shapertools.com/namespaces/shaper" xmlns:xlink="http://www.w3.org/1999/xlink" y="0cm"><path d="M-2.02,-0.95 a0.35,0.35 0 1,1 0.7,0 a0.35,0.35 0 1,1 -0.7,0z" fill="none" shaper:cutDepth="0" shaper:pathType="guide" stroke="rgb(100,100,100)" transform="matrix(1,0,0,-1,6,2.6925)" vector-effect="non-scaling-stroke" /><path d="M1.28,-0.95 a0.35,0.35 0 1,1 0.7,0 a0.35,0.35 0 1,1 -0.7,0z" fill="none" shaper:cutDepth="0" shaper:pathType="guide" stroke="rgb(100,100,100)" transform="matrix(1,0,0,-1,6,2.6925)" vector-effect="non-scaling-stroke" /><path d="M0.18,-0.95 a0.35,0.35 0 1,1 0.7,0 a0.35,0.35 0 1,1 -0.7,0z" fill="none" shaper:cutDepth="0" shaper:pathType="guide" stroke="rgb(100,100,100)" transform="matrix(1,0,0,-1,6,2.6925)" vector-effect="non-scaling-stroke" /><path d="M-0.92,-0.95 a0.35,0.35 0 1,1 0.7,0 a0.35,0.35 0 1,1 -0.7,0z" fill="none" shaper:cutDepth="0" shaper:pathType="guide" stroke="rgb(100,100,100)" transform="matrix(1,0,0,-1,6,2.6925)" vector-effect="non-scaling-stroke" /><path d="M-3.7291932,1.9583913 A0.2730074,0.2730074 76.7306687 0,0 -3.5188488,1.6926727 L-3.5188488,1.2185149 -3.0446911,1.2185149 A0.2730074,0.2730074 90 0,0 -2.7789724,1.0081705 A1.2775681,1.2775681 13.2693313 0,0 -2.7789724,0.4216932 A0.2730074,0.2730074 346.7306687 0,0 -3.0446911,0.2113488 L-3.5188488,0.2113488 -3.5188488,-0.2628089 A0.2730074,0.2730074 0 0,0 -3.7291932,-0.5285276 A1.2775681,1.2775681 283.2693313 0,0 -4.3156705,-0.5285276 A0.2730074,0.2730074 256.7306687 0,0 -4.5260149,-0.2628089 L-4.5260149,0.2113488 -5.0001727,0.2113488 A0.2730074,0.2730074 270 0,0 -5.2658913,0.4216932 A1.2775681,1.2775681 193.2693313 0,0 -5.2658913,1.0081705 A0.2730074,0.2730074 166.7306687 0,0 -5.0001727,1.2185149 L-4.5260149,1.2185149 -4.5260149,1.6926727 A0.2730074,0.2730074 180 0,0 -4.3156705,1.9583913 A1.2775681,1.2775681 103.2693313 0,0 -3.7291932,1.9583913z" fill="none" shaper:cutDepth="0" shaper:pathType="guide" stroke="rgb(100,100,100)" transform="matrix(1,0,0,-1,6,2.6925)" vector-effect="non-scaling-stroke" /><path d="M4.56,0.7149319 a0.55,0.55 0 1,1 1.1,0 a0.55,0.55 0 1,1 -1.1,0z" fill="none" shaper:cutDepth="0" shaper:pathType="guide" stroke="rgb(100,100,100)" transform="matrix(1,0,0,-1,6,2.6925)" vector-effect="non-scaling-stroke" /><path d="M3.4324319,1.8425 a0.55,0.55 0 1,1 1.1,0 a0.55,0.55 0 1,1 -1.1,0z" fill="none" shaper:cutDepth="0" shaper:pathType="guide" stroke="rgb(100,100,100)" transform="matrix(1,0,0,-1,6,2.6925)" vector-effect="non-scaling-stroke" /><path d="M3.4324319,-0.4126362 a0.55,0.55 0 1,1 1.1,0 a0.55,0.55 0 1,1 -1.1,0z" fill="none" shaper:cutDepth="0" shaper:pathType="guide" stroke="rgb(100,100,100)" transform="matrix(1,0,0,-1,6,2.6925)" vector-effect="non-scaling-stroke" /><path d="M2.3048638,0.7149319 a0.55,0.55 0 1,1 1.1,0 a0.55,0.55 0 1,1 -1.1,0z" fill="none" shaper:cutDepth="0" shaper:pathType="guide" stroke="rgb(100,100,100)" transform="matrix(1,0,0,-1,6,2.6925)" vector-effect="non-scaling-stroke" /><path d="M-4.0224319,2.6925 A1.9775681,1.9775681 90 0,1 -4.6613677,-1.1565747 L-0.3107825,-2.6418725 A0.9,0.9 251.15 0,1 0.2707825,-2.6418725 L4.6213677,-1.1565747 A1.9775681,1.9775681 288.85 0,1 3.9824319,2.6925 L-4.0224319,2.6925z" fill="none" shaper:cutDepth="0" shaper:pathType="guide" stroke="rgb(100,100,100)" transform="matrix(1,0,0,-1,6,2.6925)" vector-effect="non-scaling-stroke" /><path d="M4.6213677,-1.1565747 A1.9775681,1.9775681 288.85 0,1 3.9824319,2.6925 L-4.0224319,2.6925 A1.9775681,1.9775681 90 0,1 -4.6613677,-1.1565747 L-0.3107825,-2.6418725 A0.9,0.9 251.15 0,1 0.2707825,-2.6418725 L4.6213677,-1.1565747z" fill="none" shaper:cutDepth="0" shaper:pathType="guide" stroke="rgb(100,100,100)" transform="matrix(1,0,0,-1,6,2.6925)" vector-effect="non-scaling-stroke" /><path d="M3.4324319,-0.4126362 a0.55,0.55 0 1,1 1.1,0 a0.55,0.55 0 1,1 -1.1,0z" fill="none" shaper:cutDepth="0" shaper:pathType="guide" stroke="rgb(100,100,100)" transform="matrix(1,0,0,-1,6,2.6925)" vector-effect="non-scaling-stroke" /><path d="M2.3048638,0.7149319 a0.55,0.55 0 1,1 1.1,0 a0.55,0.55 0 1,1 -1.1,0z" fill="none" shaper:cutDepth="0" shaper:pathType="guide" stroke="rgb(100,100,100)" transform="matrix(1,0,0,-1,6,2.6925)" vector-effect="non-scaling-stroke" /><path d="M3.4324319,1.8425 a0.55,0.55 0 1,1 1.1,0 a0.55,0.55 0 1,1 -1.1,0z" fill="none" shaper:cutDepth="0" shaper:pathType="guide" stroke="rgb(100,100,100)" transform="matrix(1,0,0,-1,6,2.6925)" vector-effect="non-scaling-stroke" /><path d="M4.56,0.7149319 a0.55,0.55 0 1,1 1.1,0 a0.55,0.55 0 1,1 -1.1,0z" fill="none" shaper:cutDepth="0" shaper:pathType="guide" stroke="rgb(100,100,100)" transform="matrix(1,0,0,-1,6,2.6925)" vector-effect="non-scaling-stroke" /><path d="M1.28,-0.95 a0.35,0.35 0 1,1 0.7,0 a0.35,0.35 0 1,1 -0.7,0z" fill="none" shaper:cutDepth="0" shaper:pathType="guide" stroke="rgb(100,100,100)" transform="matrix(1,0,0,-1,6,2.6925)" vector-effect="non-scaling-stroke" /><path d="M0.18,-0.95 a0.35,0.35 0 1,1 0.7,0 a0.35,0.35 0 1,1 -0.7,0z" fill="none" shaper:cutDepth="0" shaper:pathType="guide" stroke="rgb(100,100,100)" transform="matrix(1,0,0,-1,6,2.6925)" vector-effect="non-scaling-stroke" /><path d="M-0.92,-0.95 a0.35,0.35 0 1,1 0.7,0 a0.35,0.35 0 1,1 -0.7,0z" fill="none" shaper:cutDepth="0" shaper:pathType="guide" stroke="rgb(100,100,100)" transform="matrix(1,0,0,-1,6,2.6925)" vector-effect="non-scaling-stroke" /><path d="M-2.02,-0.95 a0.35,0.35 0 1,1 0.7,0 a0.35,0.35 0 1,1 -0.7,0z" fill="none" shaper:cutDepth="0" shaper:pathType="guide" stroke="rgb(100,100,100)" transform="matrix(1,0,0,-1,6,2.6925)" vector-effect="non-scaling-stroke" /><path d="M-3.5188488,-0.2628089 L-3.5188488,0.2113488 -3.0446911,0.2113488 A0.2730074,0.2730074 270 0,1 -2.7789724,0.4216932 A1.2775681,1.2775681 346.7306687 0,1 -2.7789724,1.0081705 A0.2730074,0.2730074 13.2693313 0,1 -3.0446911,1.2185149 L-3.5188488,1.2185149 -3.5188488,1.6926727 A0.2730074,0.2730074 0 0,1 -3.7291932,1.9583913 A1.2775681,1.2775681 76.7306687 0,1 -4.3156705,1.9583913 A0.2730074,0.2730074 103.2693313 0,1 -4.5260149,1.6926727 L-4.5260149,1.2185149 -5.0001727,1.2185149 A0.2730074,0.2730074 90 0,1 -5.2658913,1.0081705 A1.2775681,1.2775681 166.7306687 0,1 -5.2658913,0.4216932 A0.2730074,0.2730074 193.2693313 0,1 -5.0001727,0.2113488 L-4.5260149,0.2113488 -4.5260149,-0.2628089 A0.2730074,0.2730074 180 0,1 -4.3156705,-0.5285276 A1.2775681,1.2775681 256.7306687 0,1 -3.7291932,-0.5285276 A0.2730074,0.2730074 283.2693313 0,1 -3.5188488,-0.2628089z" fill="none" shaper:cutDepth="0" shaper:pathType="guide" stroke="rgb(100,100,100)" transform="matrix(1,0,0,-1,6,2.6925)" vector-effect="non-scaling-stroke" /></svg>