0
SECTION
2
HEADER
9
$INSUNITS
70
4
9
$ACADVER
1
AC1014
9
$HANDSEED
5
FFFF
0
ENDSEC
0
SECTION
2
TABLES
0
TABLE
2
VPORT
5
8
100
AcDbSymbolTable
0
ENDTAB
0
TABLE
2
LTYPE
5
5
100
AcDbSymbolTable
0
LTYPE
5
14
100
AcDbSymbolTableRecord
100
AcDbLinetypeTableRecord
2
BYBLOCK
70
0
0
LTYPE
5
15
100
AcDbSymbolTableRecord
100
AcDbLinetypeTableRecord
2
BYLAYER
70
0
0
ENDTAB
0
TABLE
2
LAYER
5
2
100
AcDbSymbolTable
70
2
0
LAYER
5
50
100
AcDbSymbolTableRecord
100
AcDbLayerTableRecord
2
0
70
0
6
CONTINUOUS
0
ENDTAB
0
TABLE
2
STYLE
5
3
100
AcDbSymbolTable
70
1
0
STYLE
5
11
100
AcDbSymbolTableRecord
100
AcDbTextStyleTableRecord
2
STANDARD
70
0
0
ENDTAB
0
TABLE
2
VIEW
5
6
100
AcDbSymbolTable
70
0
0
ENDTAB
0
TABLE
2
UCS
5
7
100
AcDbSymbolTable
70
0
0
ENDTAB
0
TABLE
2
APPID
5
9
100
AcDbSymbolTable
70
2
0
APPID
5
12
100
AcDbSymbolTableRecord
100
AcDbRegAppTableRecord
2
ACAD
70
0
0
ENDTAB
0
TABLE
2
DIMSTYLE
5
A
100
AcDbSymbolTable
70
1
0
ENDTAB
0
TABLE
2
BLOCK_RECORD
5
1
100
AcDbSymbolTable
70
1
0
BLOCK_RECORD
5
1F
100
AcDbSymbolTableRecord
100
AcDbBlockTableRecord
2
*MODEL_SPACE
0
BLOCK_RECORD
5
1B
100
AcDbSymbolTableRecord
100
AcDbBlockTableRecord
2
*PAPER_SPACE
0
ENDTAB
0
ENDSEC
0
SECTION
2
BLOCKS
0
BLOCK
5
20
100
AcDbEntity
100
AcDbBlockBegin
2
*MODEL_SPACE
0
ENDBLK
5
21
100
AcDbEntity
100
AcDbBlockEnd
0
BLOCK
5
1C
100
AcDbEntity
100
AcDbBlockBegin
2
*PAPER_SPACE
0
ENDBLK
5
1D
100
AcDbEntity
100
AcDbBlockEnd
0
ENDSEC
0
SECTION
2
ENTITIES
0
CIRCLE
5
100
100
AcDbEntity
8
0
100
AcDbCircle
10
-16.700000000000014
20
-9.500000001526189
30
0
40
3.5000000000000009
210
0
220
0
230
1
0
CIRCLE
5
101
100
AcDbEntity
8
0
100
AcDbCircle
10
16.29999999999999
20
-9.500000001526189
30
0
40
3.5000000000000009
210
0
220
0
230
1
0
CIRCLE
5
102
100
AcDbEntity
8
0
100
AcDbCircle
10
5.2999999999999883
20
-9.500000001526189
30
0
40
3.5
210
0
220
0
230
1
0
CIRCLE
5
103
100
AcDbEntity
8
0
100
AcDbCircle
10
-5.7000000000000126
20
-9.500000001526189
30
0
40
3.5000000000000004
210
0
220
0
230
1
0
LWPOLYLINE
5
104
100
AcDbEntity
8
0
100
AcDbPolyline
90
20
70
1
43
0.0
10
-35.188488463501933
20
12.185149104479166
10
-35.188488463501933
20
16.926726784753598
42
0.34789767940125826
10
-37.291932126895205
20
19.583913231311211
42
0.11631711987178521
10
-43.156705439559857
20
19.583913231311151
42
0.34789767940125926
10
-45.260149102953079
20
16.926726784753484
10
-45.260149102952965
20
12.185149104479059
10
-50.001726783227404
20
12.185149104479056
42
0.34789767940126015
10
-52.658913229785014
20
10.081705441085781
42
0.11631711987178608
10
-52.658913229784943
20
4.2169321284211216
42
0.34789767940126093
10
-50.001726783227284
20
2.1134884650279306
10
-45.260149102952866
20
2.1134884650280217
10
-45.260149102952866
20
-2.6280892152464119
42
0.3478976794012566
10
-43.156705439559587
20
-5.2852756618040262
42
0.11631711987178528
10
-37.29193212689492
20
-5.2852756618039622
42
0.34789767940125649
10
-35.18848846350172
20
-2.6280892152462965
10
-35.18848846350182
20
2.1134884650281349
10
-30.446910783227395
20
2.1134884650281327
42
0.3478976794012581
10
-27.789724336669778
20
4.2169321284214059
42
0.11631711987178446
10
-27.789724336669845
20
10.081705441086065
42
0.34789767940125937
10
-30.446910783227512
20
12.185149104479272
0
CIRCLE
5
105
100
AcDbEntity
8
0
100
AcDbCircle
10
51.099999999999994
20
7.1493187847535564
30
0
40
5.4999999999999982
210
0
220
0
230
1
0
CIRCLE
5
106
100
AcDbEntity
8
0
100
AcDbCircle
10
39.824318783227433
20
18.425000001526179
30
0
40
5.5000000000000027
210
0
220
0
230
1
0
CIRCLE
5
107
100
AcDbEntity
8
0
100
AcDbCircle
10
39.824318783227369
20
-4.126362432019004
30
0
40
5.4999999999999982
210
0
220
0
230
1
0
CIRCLE
5
108
100
AcDbEntity
8
0
100
AcDbCircle
10
28.548637566454815
20
7.1493187847536186
30
0
40
5.4999999999999982
210
0
220
0
230
1
0
LWPOLYLINE
5
109
100
AcDbEntity
8
0
100
AcDbPolyline
90
6
70
1
43
0.0
10
-46.613676845527856
20
-11.565746567500172
42
-0.847686669092655
10
-40.22431878322741
20
26.925000001526183
10
39.824318783227397
20
26.925000001526172
42
-0.84768666909265178
10
46.213676845527836
20
-11.565746567500156
10
2.7078247855601583
20
-26.41872504204354
42
-0.16599724844572827
10
-3.1078254142263351
20
-26.418725029921461
0
LWPOLYLINE
5
110
100
AcDbEntity
8
0
100
AcDbPolyline
90
6
70
1
43
0.0
10
39.824318783227397
20
26.925000001526183
42
-0.84768666909265156
10
46.213676845527836
20
-11.565746567500161
10
2.7078247855601552
20
-26.41872504204354
42
-0.16599724844572827
10
-3.1078254142263351
20
-26.418725029921461
10
-46.613676845527849
20
-11.565746567500144
42
-0.84768666909265122
10
-40.22431878322741
20
26.925000001526183
0
CIRCLE
5
111
100
AcDbEntity
8
0
100
AcDbCircle
10
39.824318783227369
20
-4.126362432019004
30
0
40
5.4999999999999982
210
0
220
0
230
1
0
CIRCLE
5
112
100
AcDbEntity
8
0
100
AcDbCircle
10
28.548637566454815
20
7.1493187847536186
30
0
40
5.4999999999999982
210
0
220
0
230
1
0
CIRCLE
5
113
100
AcDbEntity
8
0
100
AcDbCircle
10
39.824318783227433
20
18.425000001526179
30
0
40
5.5000000000000027
210
0
220
0
230
1
0
CIRCLE
5
114
100
AcDbEntity
8
0
100
AcDbCircle
10
51.099999999999994
20
7.1493187847535564
30
0
40
5.4999999999999982
210
0
220
0
230
1
0
CIRCLE
5
115
100
AcDbEntity
8
0
100
AcDbCircle
10
16.29999999999999
20
-9.500000001526189
30
0
40
3.5000000000000009
210
0
220
0
230
1
0
CIRCLE
5
116
100
AcDbEntity
8
0
100
AcDbCircle
10
5.2999999999999883
20
-9.500000001526189
30
0
40
3.5
210
0
220
0
230
1
0
CIRCLE
5
117
100
AcDbEntity
8
0
100
AcDbCircle
10
-5.7000000000000126
20
-9.500000001526189
30
0
40
3.5000000000000004
210
0
220
0
230
1
0
CIRCLE
5
118
100
AcDbEntity
8
0
100
AcDbCircle
10
-16.700000000000014
20
-9.500000001526189
30
0
40
3.5000000000000009
210
0
220
0
230
1
0
LWPOLYLINE
5
119
100
AcDbEntity
8
0
100
AcDbPolyline
90
20
70
1
43
0.0
10
-37.291932126894928
20
-5.2852756618039614
42
-0.11631711987178457
10
-43.156705439559595
20
-5.2852756618040484
42
-0.3478976794012566
10
-45.260149102952866
20
-2.6280892152464119
10
-45.260149102952866
20
2.1134884650280217
10
-50.001726783227284
20
2.1134884650279293
42
-0.34789767940126093
10
-52.658913229784957
20
4.2169321284211208
42
-0.11631711987178525
10
-52.658913229785036
20
10.081705441085782
42
-0.34789767940126015
10
-50.001726783227404
20
12.185149104479056
10
-45.260149102952965
20
12.185149104479059
10
-45.260149102953058
20
16.926726784753484
42
-0.34789767940125926
10
-43.156705439559872
20
19.583913231311147
42
-0.11631711987178525
10
-37.291932126895198
20
19.583913231311236
42
-0.34789767940125826
10
-35.188488463501933
20
16.926726784753598
10
-35.188488463501933
20
12.185149104479166
10
-30.446910783227509
20
12.185149104479258
42
-0.34789767940125937
10
-27.789724336669845
20
10.081705441086068
42
-0.11631711987178446
10
-27.789724336669764
20
4.2169321284214032
42
-0.3478976794012581
10
-30.446910783227395
20
2.1134884650281327
10
-35.18848846350182
20
2.1134884650281349
10
-35.188488463501734
20
-2.628089215246296
42
-0.34789767940125776
0
ENDSEC
0
SECTION
2
OBJECTS
0
DICTIONARY
5
C
100
AcDbDictionary
3
ACAD_GROUP
350
D
3
ACAD_MLINESTYLE
350
17
0
DICTIONARY
5
D
100
AcDbDictionary
0
DICTIONARY
5
1A
330
C
100
AcDbDictionary
0
DICTIONARY
5
17
100
AcDbDictionary
0
ENDSEC
0
EOF
