0
SECTION
2
HEADER
9
$INSUNITS
70
4
9
$ACADVER
1
AC1014
9
$HANDSEED
5
FFFF
0
ENDSEC
0
SECTION
2
TABLES
0
TABLE
2
VPORT
5
8
100
AcDbSymbolTable
0
ENDTAB
0
TABLE
2
LTYPE
5
5
100
AcDbSymbolTable
0
LTYPE
5
14
100
AcDbSymbolTableRecord
100
AcDbLinetypeTableRecord
2
BYBLOCK
70
0
0
LTYPE
5
15
100
AcDbSymbolTableRecord
100
AcDbLinetypeTableRecord
2
BYLAYER
70
0
0
ENDTAB
0
TABLE
2
LAYER
5
2
100
AcDbSymbolTable
70
2
0
LAYER
5
50
100
AcDbSymbolTableRecord
100
AcDbLayerTableRecord
2
0
70
0
6
CONTINUOUS
0
ENDTAB
0
TABLE
2
STYLE
5
3
100
AcDbSymbolTable
70
1
0
STYLE
5
11
100
AcDbSymbolTableRecord
100
AcDbTextStyleTableRecord
2
STANDARD
70
0
0
ENDTAB
0
TABLE
2
VIEW
5
6
100
AcDbSymbolTable
70
0
0
ENDTAB
0
TABLE
2
UCS
5
7
100
AcDbSymbolTable
70
0
0
ENDTAB
0
TABLE
2
APPID
5
9
100
AcDbSymbolTable
70
2
0
APPID
5
12
100
AcDbSymbolTableRecord
100
AcDbRegAppTableRecord
2
ACAD
70
0
0
ENDTAB
0
TABLE
2
DIMSTYLE
5
A
100
AcDbSymbolTable
70
1
0
ENDTAB
0
TABLE
2
BLOCK_RECORD
5
1
100
AcDbSymbolTable
70
1
0
BLOCK_RECORD
5
1F
100
AcDbSymbolTableRecord
100
AcDbBlockTableRecord
2
*MODEL_SPACE
0
BLOCK_RECORD
5
1B
100
AcDbSymbolTableRecord
100
AcDbBlockTableRecord
2
*PAPER_SPACE
0
ENDTAB
0
ENDSEC
0
SECTION
2
BLOCKS
0
BLOCK
5
20
100
AcDbEntity
100
AcDbBlockBegin
2
*MODEL_SPACE
0
ENDBLK
5
21
100
AcDbEntity
100
AcDbBlockEnd
0
BLOCK
5
1C
100
AcDbEntity
100
AcDbBlockBegin
2
*PAPER_SPACE
0
ENDBLK
5
1D
100
AcDbEntity
100
AcDbBlockEnd
0
ENDSEC
0
SECTION
2
ENTITIES
0
LWPOLYLINE
5
100
100
AcDbEntity
8
0
100
AcDbPolyline
90
4
70
1
43
0.0
10
60
20
26.925000001526193
10
-60
20
26.925000001526193
10
-60
20
-26.925000001526193
10
60
20
-26.925000001526193
0
LINE
5
101
100
AcDbEntity
8
0
100
AcDbLine
10
-3.1078254142263386
20
-26.418725029921461
30
0
11
-46.613676845527856
21
-11.565746567500145
31
0
0
LINE
5
102
100
AcDbEntity
8
0
100
AcDbLine
10
-0.20000000000000001
20
26.925000001526193
30
0
11
-0.20000000000001328
21
-26.925000001526193
31
0
0
LINE
5
103
100
AcDbEntity
8
0
100
AcDbLine
10
-2.1999999552965277
20
-9.500000001526189
30
0
11
1.7999999552965051
21
-9.500000001526189
31
0
0
LINE
5
104
100
AcDbEntity
8
0
100
AcDbLine
10
-0.20000000000001328
20
-26.925000001526193
30
0
11
-0.20000000000000684
21
-29.672083509280377
31
0
0
ARC
5
105
100
AcDbEntity
8
0
100
AcDbCircle
10
-40.224318783227403
20
7.1493187847535955
30
0
40
19.77568121677259
210
0
220
-0
230
1
100
AcDbArc
50
90
51
251.15000000000001
0
LINE
5
106
100
AcDbEntity
8
0
100
AcDbLine
10
-40.224318783227403
20
26.925000001526186
30
0
11
-0.20000000000000001
21
26.925000001526193
31
0
0
LINE
5
107
100
AcDbEntity
8
0
100
AcDbLine
10
39.824318783227405
20
26.925000001526179
30
0
11
-0.20000000000000001
21
26.925000001526193
31
0
0
ARC
5
108
100
AcDbEntity
8
0
100
AcDbCircle
10
39.824318783227405
20
7.1493187847535866
30
0
40
19.77568121677259
210
-0
220
0
230
1
100
AcDbArc
50
-71.150000000000048
51
90
0
LINE
5
109
100
AcDbEntity
8
0
100
AcDbLine
10
2.7078247855601552
20
-26.418725042043548
30
0
11
46.213676845527843
21
-11.565746567500156
31
0
0
ARC
5
110
100
AcDbEntity
8
0
100
AcDbCircle
10
-0.20000029657970136
20
-17.90141600152619
30
0
40
9.0000000000000124
210
0
220
0
230
1
100
AcDbArc
50
251.15000000000001
51
288.84999976114653
0
LINE
5
111
100
AcDbEntity
8
0
100
AcDbLine
10
-45.135866421739138
20
12.185149104479056
30
0
11
-50.001726783227404
21
12.185149104479056
31
0
0
ARC
5
112
100
AcDbEntity
8
0
100
AcDbCircle
10
-50.001726783227404
20
9.4550747847534851
30
0
40
2.7300743197255715
210
0
220
-0
230
1
100
AcDbArc
50
90
51
166.73066873502754
0
LINE
5
113
100
AcDbEntity
8
0
100
AcDbLine
10
-40.224318783227403
20
7.1493187847535955
30
0
11
-53
21
7.1493187847534507
31
0
0
ARC
5
114
100
AcDbEntity
8
0
100
AcDbCircle
10
-40.224318783227403
20
7.1493187847535955
30
0
40
12.775681216772615
210
0
220
0
230
1
100
AcDbArc
50
166.73066873502768
51
180
0
LINE
5
115
100
AcDbEntity
8
0
100
AcDbLine
10
-45.135866421739024
20
2.1134884650280239
30
0
11
-50.001726783227284
21
2.1134884650279151
31
0
0
ARC
5
116
100
AcDbEntity
8
0
100
AcDbCircle
10
-50.001726783227348
20
4.8435627847534857
30
0
40
2.730074319725555
210
0
220
0
230
1
100
AcDbArc
50
193.26933126497366
51
270.00000000000131
0
ARC
5
117
100
AcDbEntity
8
0
100
AcDbCircle
10
-40.224318783227403
20
7.1493187847535955
30
0
40
12.775681216772599
210
0
220
0
230
1
100
AcDbArc
50
180
51
193.26933126497363
0
LINE
5
118
100
AcDbEntity
8
0
100
AcDbLine
10
-45.260149102952866
20
2.2377711462418493
30
0
11
-45.260149102952866
21
-2.6280892152464119
31
0
0
ARC
5
119
100
AcDbEntity
8
0
100
AcDbCircle
10
-42.530074783227292
20
-2.6280892152464119
30
0
40
2.7300743197255706
210
0
220
0
230
1
100
AcDbArc
50
180
51
256.73066873502762
0
ARC
5
120
100
AcDbEntity
8
0
100
AcDbCircle
10
-40.224318783227403
20
7.1493187847535911
30
0
40
12.775681216772615
210
0
220
0
230
1
100
AcDbArc
50
256.73066873502768
51
270.00000000000063
0
ARC
5
121
100
AcDbEntity
8
0
100
AcDbCircle
10
-40.224318783227403
20
7.1493187847535911
30
0
40
12.775681216772599
210
0
220
0
230
1
100
AcDbArc
50
270.00000000000063
51
283.26933126497363
0
ARC
5
122
100
AcDbEntity
8
0
100
AcDbCircle
10
-37.918562783227287
20
-2.6280892152463586
30
0
40
2.7300743197255564
210
0
220
0
230
1
100
AcDbArc
50
-76.730668735026242
51
0
0
LINE
5
123
100
AcDbEntity
8
0
100
AcDbLine
10
-35.188488463501827
20
2.2377711462419647
30
0
11
-35.18848846350172
21
-2.6280892152462965
31
0
0
LINE
5
124
100
AcDbEntity
8
0
100
AcDbLine
10
-40.224318783227403
20
7.1493187847535911
30
0
11
-40.224318783227261
21
-5.6263624320190075
31
0
0
LINE
5
125
100
AcDbEntity
8
0
100
AcDbLine
10
-35.312771144715654
20
2.1134884650281349
30
0
11
-30.446910783227395
21
2.1134884650281327
31
0
0
ARC
5
126
100
AcDbEntity
8
0
100
AcDbCircle
10
-30.446910783227395
20
4.8435627847537042
30
0
40
2.7300743197255715
210
0
220
0
230
1
100
AcDbArc
50
270
51
346.73066873502756
0
ARC
5
127
100
AcDbEntity
8
0
100
AcDbCircle
10
-40.224318783227403
20
7.1493187847535955
30
0
40
12.775681216772615
210
0
220
0
230
1
100
AcDbArc
50
-13.269331264972331
51
0
0
ARC
5
128
100
AcDbEntity
8
0
100
AcDbCircle
10
-40.224318783227403
20
7.1493187847535955
30
0
40
12.775681216772599
210
0
220
-0
230
1
100
AcDbArc
50
0
51
13.269331264973612
0
ARC
5
129
100
AcDbEntity
8
0
100
AcDbCircle
10
-30.446910783227452
20
9.4550747847537036
30
0
40
2.7300743197255555
210
0
220
-0
230
1
100
AcDbArc
50
13.269331264973779
51
90.000000000001265
0
LINE
5
130
100
AcDbEntity
8
0
100
AcDbLine
10
-35.312771144715775
20
12.185149104479166
30
0
11
-30.446910783227512
21
12.185149104479274
31
0
0
LINE
5
131
100
AcDbEntity
8
0
100
AcDbLine
10
-40.224318783227403
20
7.1493187847535955
30
0
11
-27.448637566454799
21
7.1493187847537376
31
0
0
LINE
5
132
100
AcDbEntity
8
0
100
AcDbLine
10
-35.188488463501933
20
12.060866423265338
30
0
11
-35.188488463501933
21
16.926726784753598
31
0
0
ARC
5
133
100
AcDbEntity
8
0
100
AcDbCircle
10
-37.9185627832275
20
16.926726784753598
30
0
40
2.7300743197255706
210
0
220
0
230
1
100
AcDbArc
50
0
51
76.730668735027606
0
ARC
5
134
100
AcDbEntity
8
0
100
AcDbCircle
10
-40.224318783227403
20
7.1493187847535955
30
0
40
12.775681216772615
210
0
220
-0
230
1
100
AcDbArc
50
76.730668735027606
51
90.000000000000583
0
ARC
5
135
100
AcDbEntity
8
0
100
AcDbCircle
10
-40.224318783227403
20
7.1493187847535955
30
0
40
12.775681216772599
210
0
220
0
230
1
100
AcDbArc
50
90.000000000000583
51
103.26933126497357
0
ARC
5
136
100
AcDbEntity
8
0
100
AcDbCircle
10
-42.530074783227505
20
16.926726784753544
30
0
40
2.7300743197255537
210
0
220
0
230
1
100
AcDbArc
50
103.2693312649736
51
180
0
LINE
5
137
100
AcDbEntity
8
0
100
AcDbLine
10
-45.260149102952965
20
12.060866423265221
30
0
11
-45.260149102953079
21
16.926726784753484
31
0
0
LINE
5
138
100
AcDbEntity
8
0
100
AcDbLine
10
-40.224318783227403
20
7.1493187847535955
30
0
11
-40.224318783227531
21
19.925000001526193
31
0
0
CIRCLE
5
139
100
AcDbEntity
8
0
100
AcDbCircle
10
-16.700000000000014
20
-9.500000001526189
30
0
40
3.5000000000000004
210
0
220
0
230
1
0
CIRCLE
5
140
100
AcDbEntity
8
0
100
AcDbCircle
10
-5.7000000000000126
20
-9.500000001526189
30
0
40
3.5000000000000004
210
0
220
0
230
1
0
CIRCLE
5
141
100
AcDbEntity
8
0
100
AcDbCircle
10
5.2999999999999883
20
-9.500000001526189
30
0
40
3.5000000000000004
210
0
220
0
230
1
0
CIRCLE
5
142
100
AcDbEntity
8
0
100
AcDbCircle
10
16.29999999999999
20
-9.500000001526189
30
0
40
3.5000000000000004
210
0
220
0
230
1
0
CIRCLE
5
143
100
AcDbEntity
8
0
100
AcDbCircle
10
51.099999999999994
20
7.1493187847535564
30
0
40
5.5
210
0
220
0
230
1
0
LINE
5
144
100
AcDbEntity
8
0
100
AcDbLine
10
59.599999999999994
20
7.1493187847535866
30
0
11
59.599999999999994
21
-21.154030032364787
31
0
0
LINE
5
145
100
AcDbEntity
8
0
100
AcDbLine
10
59.599999999999994
20
7.1493187847535866
30
0
11
56.599999999999994
21
7.1493187847535866
31
0
0
CIRCLE
5
146
100
AcDbEntity
8
0
100
AcDbCircle
10
39.824318783227433
20
18.425000001526179
30
0
40
5.5
210
0
220
0
230
1
0
CIRCLE
5
147
100
AcDbEntity
8
0
100
AcDbCircle
10
28.548637566454815
20
7.1493187847536186
30
0
40
5.5
210
0
220
0
230
1
0
CIRCLE
5
148
100
AcDbEntity
8
0
100
AcDbCircle
10
39.824318783227369
20
-4.126362432019004
30
0
40
5.5
210
0
220
0
230
1
0
ENDSEC
0
SECTION
2
OBJECTS
0
DICTIONARY
5
C
100
AcDbDictionary
3
ACAD_GROUP
350
D
3
ACAD_MLINESTYLE
350
17
0
DICTIONARY
5
D
100
AcDbDictionary
0
DICTIONARY
5
1A
330
C
100
AcDbDictionary
0
DICTIONARY
5
17
100
AcDbDictionary
0
ENDSEC
0
EOF
